<svg id="Capa_1" enable-background="new 0 0 512 512" height="512" viewBox="0 0 512 512" width="512" xmlns="http://www.w3.org/2000/svg" xmlns:xlink="http://www.w3.org/1999/xlink"><linearGradient id="SVGID_1_" gradientUnits="userSpaceOnUse" x1="45.274" x2="466.726" y1="256" y2="256"><stop offset=".0003809248" stop-color="#ffb3b3"/><stop offset=".992" stop-color="#ffe8dc" stop-opacity="0"/></linearGradient><g><g><path d="m97.146 38.232c-135.328 119.538 38.831 235.409 22.243 366.028-7.375 58.072 16.054 113.588 92.705 107.244 93.413-7.732 59.504-97.209 79.066-156.778 33.66-102.501 240.73-78.56 154.895-236.448-54.778-100.758-255.766-162.321-348.909-80.046z" fill="url(#SVGID_1_)"/></g><g><g><path d="m456.551 426.257v-24.053c0-2.761-2.239-5-5-5h-64.1v-176.593c21.983-.689 39.595-18.714 39.595-40.864s-17.612-40.175-39.595-40.864v-26.734c0-9.642-7.816-17.459-17.459-17.459h-177.637c-7.086-20.053-26.2-34.424-48.679-34.424-28.512 0-51.625 23.113-51.625 51.625 0 16.417 7.673 31.034 19.618 40.489v40.593c0 2.761 2.239 5 5 5h29.473v97.07h-59.344c-2.761 0-5 2.239-5 5v24.053c0 2.761 2.239 5 5 5-2.761 0-5 2.239-5 5v24.053c0 2.761 2.239 5 5 5-2.761 0-5 2.239-5 5v24.053c0 2.761 2.239 5 5 5-2.761 0-5 2.239-5 5v24.053c0 2.761 2.239 5 5 5-2.761 0-5 2.239-5 5v24.053c0 2.761 2.239 5 5 5h364.753c2.761 0 5-2.239 5-5v-24.053c0-2.761-2.239-5-5-5 2.762.002 5-2.237 5-4.998z" fill="#00c" opacity=".1"/><g><g><path d="m170.685 441.31h-83.887c-2.761 0-5-2.239-5-5v-24.053c0-2.761 2.239-5 5-5h83.886c2.761 0 5 2.239 5 5v24.053c.001 2.762-2.238 5-4.999 5z" fill="#ffab66"/><path d="m170.685 407.257h-83.887c-2.761 0-5-2.239-5-5v-24.053c0-2.761 2.239-5 5-5h83.886c2.761 0 5 2.239 5 5v24.053c.001 2.761-2.238 5-4.999 5z" fill="#ff9d33"/><path d="m170.685 373.204h-83.887c-2.761 0-5-2.239-5-5v-24.054c0-2.761 2.239-5 5-5h83.886c2.761 0 5 2.239 5 5v24.053c.001 2.762-2.238 5.001-4.999 5.001z" fill="#ffab66"/><path d="m170.685 339.15h-83.887c-2.761 0-5-2.239-5-5v-24.053c0-2.761 2.239-5 5-5h83.886c2.761 0 5 2.239 5 5v24.053c.001 2.762-2.238 5-4.999 5z" fill="#ff9d33"/><path d="m170.685 305.097h-83.887c-2.761 0-5-2.239-5-5v-24.053c0-2.761 2.239-5 5-5h83.886c2.761 0 5 2.239 5 5v24.053c.001 2.761-2.238 5-4.999 5z" fill="#ffab66"/></g><g><g><path d="m175.685 70.69c-9.64 0-17.46 7.82-17.46 17.46v85.82h-41.56c-2.76 0-5-2.24-5-5v-80.82c0-9.64 7.82-17.46 17.46-17.46z" fill="#ff6c6c"/><path d="m175.685 70.69c-9.64 0-17.46 7.82-17.46 17.46v73.29c-4.61 1.35-9.5 2.08-14.55 2.08-12.1 0-23.22-4.16-32.01-11.12v-64.25c0-9.64 7.82-17.46 17.46-17.46z" fill="#ff4d4d"/></g><path d="m387.455 88.15v353.16h-223.85c-9.65 0-17.46-7.82-17.46-17.46v-335.7c0-9.64-7.82-17.46-17.46-17.46h241.31c9.64 0 17.46 7.82 17.46 17.46z" fill="#fff"/><path d="m387.455 138.87v81.75c-.44.01-.87.02-1.31.02-22.58 0-40.89-18.31-40.89-40.89 0-22.59 18.31-40.9 40.89-40.9.44 0 .87.01 1.31.02z" fill="#ebebff"/><path d="m195.305 111.89c0 27.68-21.8 50.28-49.16 51.57v-75.31c0-9.64-7.82-17.46-17.46-17.46h46.09c12.47 9.42 20.53 24.37 20.53 41.2z" fill="#ebebff"/><path d="m162.582 441.31h241.31c9.643 0 17.46-7.817 17.46-17.46v-29.7c0-2.761-2.239-5-5-5h-231.31c-2.761 0-5 2.239-5 5v29.7c0 9.64-7.82 17.46-17.46 17.46z" fill="#ff6c6c"/></g><g><path d="m451.551 441.31h-83.886c-2.761 0-5-2.239-5-5v-24.053c0-2.761 2.239-5 5-5h83.886c2.761 0 5 2.239 5 5v24.053c0 2.762-2.238 5-5 5z" fill="#ff9d33"/><path d="m451.551 407.257h-83.886c-2.761 0-5-2.239-5-5v-24.053c0-2.761 2.239-5 5-5h83.886c2.761 0 5 2.239 5 5v24.053c0 2.761-2.238 5-5 5z" fill="#ffab66"/></g></g><g><g><path d="m435.047 225.414c-1.279 0-2.56-.488-3.535-1.464l-4.465-4.464-4.465 4.464c-1.951 1.952-5.119 1.952-7.07 0-1.953-1.953-1.953-5.119 0-7.071l8-8c1.951-1.952 5.119-1.952 7.07 0l8 8c1.953 1.953 1.953 5.119 0 7.071-.976.975-2.256 1.464-3.535 1.464z" fill="#6c6cff"/></g></g><g><g><path d="m377.536 49.266c-1.279 0-2.56-.488-3.535-1.464l-4.465-4.464-4.465 4.464c-1.951 1.952-5.119 1.952-7.07 0-1.953-1.953-1.953-5.119 0-7.071l8-8c1.951-1.952 5.119-1.952 7.07 0l8 8c1.953 1.953 1.953 5.119 0 7.071-.975.975-2.256 1.464-3.535 1.464z" fill="#ff6c6c"/></g></g><g><g><path d="m71.449 255.374c-1.279 0-2.56-.488-3.535-1.464l-4.465-4.464-4.465 4.464c-1.951 1.952-5.119 1.952-7.07 0-1.953-1.953-1.953-5.119 0-7.071l8-8c1.951-1.952 5.119-1.952 7.07 0l8 8c1.953 1.953 1.953 5.119 0 7.071-.975.976-2.255 1.464-3.535 1.464z" fill="#ffab66"/></g></g><path d="m425.608 65.69h-3v-3c0-2.761-2.238-5-5-5s-5 2.239-5 5v3h-3c-2.762 0-5 2.239-5 5s2.238 5 5 5h3v3c0 2.761 2.238 5 5 5s5-2.239 5-5v-3h3c2.762 0 5-2.239 5-5s-2.238-5-5-5z" fill="#ffab66"/><path d="m326.332 467.792h-3v-3c0-2.761-2.238-5-5-5s-5 2.239-5 5v3h-3c-2.762 0-5 2.239-5 5s2.238 5 5 5h3v3c0 2.761 2.238 5 5 5s5-2.239 5-5v-3h3c2.762 0 5-2.239 5-5s-2.238-5-5-5z" fill="#ff6c6c"/></g><g><path d="m176.805 291.124h184.74c2.762 0 5-2.239 5-5s-2.238-5-5-5h-184.74c-2.762 0-5 2.239-5 5s2.238 5 5 5z" fill="#ff9494"/></g><g><path d="m277.434 352.15h67.74c2.762 0 5-2.239 5-5s-2.238-5-5-5h-67.74c-2.762 0-5 2.239-5 5s2.238 5 5 5z" fill="#8383ff"/></g><g><path d="m337.434 332.124h7.74c2.762 0 5-2.239 5-5s-2.238-5-5-5h-7.74c-2.762 0-5 2.239-5 5s2.238 5 5 5z" fill="#8383ff"/></g><g><path d="m298.434 332.124h16.74c2.762 0 5-2.239 5-5s-2.238-5-5-5h-16.74c-2.762 0-5 2.239-5 5s2.238 5 5 5z" fill="#8383ff"/></g><g><g><g><path d="m196.101 265.287h76.74c2.762 0 5-2.239 5-5s-2.238-5-5-5h-76.74c-2.762 0-5 2.239-5 5s2.238 5 5 5z" fill="#8383ff"/></g><g><path d="m196.101 243.413h46.74c2.762 0 5-2.239 5-5s-2.238-5-5-5h-46.74c-2.762 0-5 2.239-5 5s2.238 5 5 5z" fill="#8383ff"/></g><g><path d="m196.101 221.539h76.74c2.762 0 5-2.239 5-5s-2.238-5-5-5h-76.74c-2.762 0-5 2.239-5 5s2.238 5 5 5z" fill="#8383ff"/></g><g><path d="m196.101 199.664h67.74c2.762 0 5-2.239 5-5s-2.238-5-5-5h-67.74c-2.762 0-5 2.239-5 5s2.238 5 5 5z" fill="#8383ff"/></g><g><path d="m196.101 177.79h55.74c2.762 0 5-2.239 5-5s-2.238-5-5-5h-55.74c-2.762 0-5 2.239-5 5s2.238 5 5 5z" fill="#8383ff"/></g><g><path d="m196.101 155.915h76.74c2.762 0 5-2.239 5-5s-2.238-5-5-5h-76.74c-2.762 0-5 2.239-5 5s2.238 5 5 5z" fill="#8383ff"/></g></g><g><g><path d="m322.434 265.287h16.74c2.762 0 5-2.239 5-5s-2.238-5-5-5h-16.74c-2.762 0-5 2.239-5 5s2.238 5 5 5z" fill="#8383ff"/></g><g><path d="m322.434 243.413h16.74c2.762 0 5-2.239 5-5s-2.238-5-5-5h-16.74c-2.762 0-5 2.239-5 5s2.238 5 5 5z" fill="#8383ff"/></g><g><path d="m322.434 221.539h16.74c2.762 0 5-2.239 5-5s-2.238-5-5-5h-16.74c-2.762 0-5 2.239-5 5s2.238 5 5 5z" fill="#8383ff"/></g><g><path d="m322.434 199.664h16.74c2.762 0 5-2.239 5-5s-2.238-5-5-5h-16.74c-2.762 0-5 2.239-5 5s2.238 5 5 5z" fill="#8383ff"/></g><g><path d="m322.434 177.79h16.74c2.762 0 5-2.239 5-5s-2.238-5-5-5h-16.74c-2.762 0-5 2.239-5 5s2.238 5 5 5z" fill="#8383ff"/></g><g><path d="m322.434 155.915h16.74c2.762 0 5-2.239 5-5s-2.238-5-5-5h-16.74c-2.762 0-5 2.239-5 5s2.238 5 5 5z" fill="#8383ff"/></g></g></g><g><circle cx="386.149" cy="155.747" fill="#ff6c6c" r="40.897"/><path d="m402.762 149.133c0-9.161-7.453-16.613-16.613-16.613s-16.613 7.453-16.613 16.613c0 4.518 1.818 8.615 4.755 11.613-2.936 2.998-4.755 7.095-4.755 11.613 0 2.761 2.239 5 5 5s5-2.239 5-5c0-3.646 2.967-6.613 6.613-6.613s6.613 2.967 6.613 6.613c0 2.761 2.239 5 5 5s5-2.239 5-5c0-4.518-1.818-8.615-4.755-11.613 2.937-2.997 4.755-7.095 4.755-11.613zm-16.613-6.613c3.646 0 6.613 2.967 6.613 6.613s-2.967 6.613-6.613 6.613-6.613-2.967-6.613-6.613 2.967-6.613 6.613-6.613z" fill="#fff"/></g><path d="m225.273 330.226h-.803v-7.972h7.872c2.762 0 5-2.239 5-5s-2.238-5-5-5h-7.872v-1.691c0-2.761-2.238-5-5-5s-5 2.239-5 5v1.691h-.803c-7.712 0-13.986 6.274-13.986 13.986s6.274 13.986 13.986 13.986h.803v7.972h-7.872c-2.762 0-5 2.239-5 5s2.238 5 5 5h7.872v1.692c0 2.761 2.238 5 5 5s5-2.239 5-5v-1.692h.803c7.712 0 13.986-6.274 13.986-13.986s-6.274-13.986-13.986-13.986zm-11.605 0c-2.198 0-3.986-1.788-3.986-3.986s1.788-3.986 3.986-3.986h.803v7.972zm11.605 17.972h-.803v-7.972h.803c2.198 0 3.986 1.788 3.986 3.986.001 2.198-1.787 3.986-3.986 3.986z" fill="#6c6cff"/><g><g><circle cx="143.677" cy="87.891" fill="#4d4dff" r="51.625"/><path d="m461.551 378.204c0-5.514-4.486-10-10-10h-59.1v-138.57c0-2.761-2.238-5-5-5s-5 2.239-5 5v138.569h-14.786c-5.514 0-10 4.486-10 10v24.053c0 1.822.498 3.527 1.353 5-.855 1.473-1.353 3.178-1.353 5v24.053h-176.404c2.388-3.567 3.781-7.854 3.781-12.46v-29.7h144.632c2.762 0 5-2.239 5-5s-2.238-5-5-5h-144.632c-5.514 0-10 4.486-10 10v29.7c0 6.699-5.318 12.164-11.951 12.434-6.633-.27-11.95-5.735-11.95-12.433v-279.841c27.705-3.667 49.16-27.426 49.16-56.118 0-4.189-.471-8.268-1.338-12.201h171.029c6.87 0 12.459 5.589 12.459 12.458v21.863c-23.583 1.891-42.199 21.673-42.199 45.735 0 25.308 20.59 45.897 45.897 45.897s45.897-20.589 45.897-45.897c0-23.169-17.26-42.372-39.596-45.454v-22.144c0-12.384-10.075-22.458-22.459-22.458h-174.228c-8.651-20.219-28.74-34.424-52.086-34.424-31.223 0-56.625 25.402-56.625 56.625 0 17.084 7.615 32.413 19.617 42.804v38.279c0 5.514 4.486 10 10 10h24.473v87.07h-54.344c-5.514 0-10 4.486-10 10v24.054c0 1.822.498 3.527 1.353 5-.855 1.473-1.353 3.178-1.353 5v24.053c0 1.822.498 3.527 1.353 5-.855 1.473-1.353 3.178-1.353 5v24.053c0 1.822.498 3.527 1.353 5-.855 1.473-1.353 3.178-1.353 5v24.053c0 1.822.498 3.527 1.353 5-.855 1.473-1.353 3.178-1.353 5v24.053c0 5.514 4.486 10 10 10h364.753c5.514 0 10-4.486 10-10v-24.053c0-1.822-.498-3.527-1.353-5 .855-1.473 1.353-3.178 1.353-5zm-39.504-222.457c0 19.794-16.104 35.897-35.897 35.897s-35.897-16.104-35.897-35.897 16.104-35.897 35.897-35.897 35.897 16.103 35.897 35.897zm-335.249 222.457h54.344v24.053h-54.344zm0-34.054h54.344v24.053h-54.344zm0-34.053h54.344v24.053h-54.344zm10.254-222.206c0-25.709 20.916-46.625 46.625-46.625s46.625 20.916 46.625 46.625-20.916 46.625-46.625 46.625-46.625-20.916-46.625-46.625zm19.617 81.082v-31.324c7.333 3.996 15.644 6.412 24.473 6.803v24.521zm-29.871 107.07h54.344v24.053h-54.344zm0 136.214h54.344v11.595c0 4.606 1.396 8.891 3.783 12.458h-58.127zm280.867-34.053h83.886l.007 24.053h-83.893zm0 58.106v-24.053h83.886l.007 24.053z" fill="#00c"/></g><path d="m149.479 82.891h-.803v-7.972h7.872c2.762 0 5-2.239 5-5s-2.238-5-5-5h-7.872v-1.692c0-2.761-2.238-5-5-5s-5 2.239-5 5v1.692h-.803c-7.712 0-13.986 6.274-13.986 13.986s6.274 13.986 13.986 13.986h.803v7.972h-7.872c-2.762 0-5 2.239-5 5s2.238 5 5 5h7.872v1.692c0 2.761 2.238 5 5 5s5-2.239 5-5v-1.692h.803c7.712 0 13.986-6.274 13.986-13.986s-6.274-13.986-13.986-13.986zm-11.605 0c-2.198 0-3.986-1.788-3.986-3.986s1.788-3.986 3.986-3.986h.803v7.972zm11.605 17.972h-.803v-7.972h.803c2.198 0 3.986 1.788 3.986 3.986.001 2.198-1.787 3.986-3.986 3.986z" fill="#fff"/></g></g></g></svg>