<svg height="512" viewBox="0 0 64 64" width="512" xmlns="http://www.w3.org/2000/svg"><g id="Server-Storage-Computer-Connection-Internet"><path d="m32 57h26v4h-26z" fill="#bddbff"/><path d="m59 29h-28a2.006 2.006 0 0 0 -2 2v8a2.006 2.006 0 0 0 2 2h28a2.006 2.006 0 0 0 2-2v-8a2.006 2.006 0 0 0 -2-2zm-24 8a2 2 0 1 1 2-2 2.006 2.006 0 0 1 -2 2z" fill="#bddbff"/><path d="m59 45h-28a2.006 2.006 0 0 0 -2 2v8a2.006 2.006 0 0 0 2 2h28a2.006 2.006 0 0 0 2-2v-8a2.006 2.006 0 0 0 -2-2zm-24 4a1.994 1.994 0 0 1 1.94 1.53 1.835 1.835 0 0 1 .06.47 2 2 0 1 1 -2-2z" fill="#bddbff"/><circle cx="29" cy="16" fill="#bddbff" r="9"/><path d="m32 43v2h-1a2.006 2.006 0 0 0 -2 2v4h-8l1-8z" fill="#bddbff"/><path d="m32 41v2h-23a6.018 6.018 0 0 1 -6-6v-2h26v4a2.006 2.006 0 0 0 2 2z" fill="#bddbff"/><path d="m29 51v4h-11a2.006 2.006 0 0 1 -2-2 2.015 2.015 0 0 1 2-2z" fill="#bddbff"/><g fill="#3d9ae2"><path d="m4 37v-1h22v-2h-22v-25a5.006 5.006 0 0 1 5-5h40a5.006 5.006 0 0 1 5 5v17h2v-17a7.008 7.008 0 0 0 -7-7h-40a7.008 7.008 0 0 0 -7 7v28a7.008 7.008 0 0 0 7 7h11.867l-.75 6h-2.117a3 3 0 0 0 0 6h8v-2h-8a1 1 0 0 1 0-2h8v-2h-3.867l.75-6h4.117v-2h-18a5.006 5.006 0 0 1 -5-5z"/><path d="m35 48a3 3 0 1 0 3 3 3 3 0 0 0 -3-3zm0 4a1 1 0 1 1 1-1 1 1 0 0 1 -1 1z"/><path d="m56 49h2v4h-2z"/><path d="m52 49h2v4h-2z"/><path d="m48 49h2v4h-2z"/><path d="m40 50h2v2h-2z"/><path d="m44 50h2v2h-2z"/><path d="m62 39v-8a3 3 0 0 0 -3-3h-28a3 3 0 0 0 -3 3v8a3 3 0 0 0 3 3v2a3 3 0 0 0 -3 3v8a3 3 0 0 0 3 3v3a1 1 0 0 0 1 1h26a1 1 0 0 0 1-1v-3a3 3 0 0 0 3-3v-8a3 3 0 0 0 -3-3v-2a3 3 0 0 0 3-3zm-32 0v-8a1 1 0 0 1 1-1h28a1 1 0 0 1 1 1v8a1 1 0 0 1 -1 1h-28a1 1 0 0 1 -1-1zm27 21h-24v-2h24zm3-13v8a1 1 0 0 1 -1 1h-28a1 1 0 0 1 -1-1v-8a1 1 0 0 1 1-1h28a1 1 0 0 1 1 1zm-3-3h-24v-2h24z"/><path d="m35 38a3 3 0 1 0 -3-3 3 3 0 0 0 3 3zm0-4a1 1 0 1 1 -1 1 1 1 0 0 1 1-1z"/><path d="m56 33h2v4h-2z"/><path d="m52 33h2v4h-2z"/><path d="m48 33h2v4h-2z"/><path d="m40 34h2v2h-2z"/><path d="m44 34h2v2h-2z"/><path d="m28 19h2v2h-2z"/><path d="m25.465 16.464 1.414 1.414a3.074 3.074 0 0 1 4.242 0l1.414-1.414a5 5 0 0 0 -7.07 0z"/><path d="m22.636 13.636 1.414 1.414a7.011 7.011 0 0 1 9.9 0l1.414-1.414a9.01 9.01 0 0 0 -12.728 0z"/><path d="m19 16a10 10 0 1 0 10-10 10.011 10.011 0 0 0 -10 10zm18 0a8 8 0 1 1 -8-8 8.009 8.009 0 0 1 8 8z"/></g></g></svg>