<svg id="Capa_1" enable-background="new 0 0 512 512" height="512" viewBox="0 0 512 512" width="512" xmlns="http://www.w3.org/2000/svg"><g><path d="m111 353.5v40c0 8.28-6.72 15-15 15h-50c-8.28 0-15-6.72-15-15v-42.53c11.686 4.396 5.412 1.755 80 2.53z" fill="#3f5379"/><path d="m481 350.92v42.58c0 8.28-6.72 15-15 15h-50c-8.28 0-15-6.72-15-15v-40c83.62 0 71.019.864 80-2.58z" fill="#29406b"/><path d="m512 163.5v150c0 24.34-19.43 44.23-43.6 44.98-.27.01-.54.02-.81.02h-422.59c-24.81 0-45-20.19-45-45v-150c0-24.72 20.04-44.85 44.73-45h422.27c24.81 0 45 20.19 45 45z" fill="#d1dae8"/><path d="m512 163.5v150c0 25.264-20.849 45-44.41 45h-271.59v-240h271c24.81 0 45 20.19 45 45z" fill="#a3b2cc"/><circle cx="196" cy="238.5" fill="#3f5379" r="135"/><path d="m331 238.5c0 74.439-60.552 135-135 135v-270c74.439 0 135 60.553 135 135z" fill="#29406b"/><circle cx="196" cy="238.5" fill="#54cbfe" r="105"/><path d="m301 238.5c0 57.9-47.1 105-105 105v-210c57.9 0 105 47.1 105 105z" fill="#4da5fe"/><circle cx="196" cy="238.5" fill="#4bb7e5" r="75"/><path d="m271 238.5c0 41.36-33.64 75-75 75v-150c41.36 0 75 33.65 75 75z" fill="#4595e5"/><circle cx="196" cy="238.5" fill="#54cbfe" r="45"/><path d="m241 238.5c0 24.81-20.19 45-45 45v-90c24.81 0 45 20.19 45 45z" fill="#4da5fe"/><g fill="#7d8fb2"><path d="m391 283.5v75h-30v-75c0-8.28 6.72-15 15-15s15 6.72 15 15z"/><path d="m451 283.5v75h-30v-75c0-8.28 6.72-15 15-15s15 6.72 15 15z"/><path d="m451 118.5v75c0 8.28-6.72 15-15 15s-15-6.72-15-15v-75z"/><path d="m391 118.5v75c0 8.28-6.72 15-15 15s-15-6.72-15-15v-75z"/></g></g></svg>