<svg xmlns="http://www.w3.org/2000/svg" viewBox="0 0 447.93 357.04"><defs><style>.cls-1{fill:#f5f5f5;}.cls-2{fill:#e0e0e0;}.cls-3{fill:#ebebeb;}.cls-4{fill:#27debf;}.cls-5{opacity:0.2;}.cls-10,.cls-12,.cls-6,.cls-9{fill:#fff;}.cls-7,.cls-9{opacity:0.7;}.cls-8{opacity:0.5;}.cls-10{opacity:0.8;}.cls-11{fill:#455a64;}.cls-12{opacity:0.6;}</style></defs><title>status-pendaftaran</title><g id="Floor"><g id="_Group_" data-name="&lt;Group&gt;"><path class="cls-1" d="M98,388.25c87.46,45.69,229.27,45.69,316.73,0s87.46-119.77,0-165.47S185.5,177.09,98,222.78,10.58,342.56,98,388.25Z" transform="translate(-32.44 -65.48)"/></g></g><g id="Filing_Cabinets" data-name="Filing Cabinets"><g id="_Group_2" data-name="&lt;Group&gt;"><g id="_Group_3" data-name="&lt;Group&gt;"><polygon class="cls-2" points="41.18 247.85 12.75 231.43 12.75 170.46 41.18 186.87 41.18 247.85"/></g><g id="_Group_4" data-name="&lt;Group&gt;"><polygon class="cls-3" points="41.18 186.87 81.8 163.42 81.8 224.4 41.18 247.85 41.18 186.87"/></g><g id="_Group_5" data-name="&lt;Group&gt;"><polygon class="cls-1" points="81.8 163.42 41.18 186.87 12.75 170.46 53.37 147 81.8 163.42"/></g><g id="_Group_6" data-name="&lt;Group&gt;"><g id="_Group_7" data-name="&lt;Group&gt;"><polygon class="cls-2" points="45.24 189.22 77.74 170.46 78.49 170.89 78.49 193.47 45.99 212.24 45.24 211.8 45.24 189.22"/></g><g id="_Group_8" data-name="&lt;Group&gt;"><polygon class="cls-1" points="45.99 189.65 78.49 170.89 78.49 193.47 45.99 212.24 45.99 189.65"/></g><g id="_Group_9" data-name="&lt;Group&gt;"><path class="cls-2" d="M91.17,251.6l5.53-3.19c.71-.42,1.29-.23,1.29.42a2.59,2.59,0,0,1-1.29,1.92l-5.53,3.19c-.72.42-1.3.23-1.3-.42A2.58,2.58,0,0,1,91.17,251.6Z" transform="translate(-32.44 -65.48)"/></g></g><g id="_Group_10" data-name="&lt;Group&gt;"><g id="_Group_11" data-name="&lt;Group&gt;"><polygon class="cls-2" points="44.5 217.8 76.99 199.03 76.99 221.62 77.74 222.05 45.24 240.81 44.49 240.38 44.5 217.8"/></g><g id="_Group_12" data-name="&lt;Group&gt;"><polygon class="cls-1" points="45.24 218.23 77.74 199.47 77.74 222.05 45.24 240.81 45.24 218.23"/></g><g id="_Group_13" data-name="&lt;Group&gt;"><path class="cls-2" d="M90.42,280.18,96,277c.72-.42,1.3-.23,1.3.42a2.58,2.58,0,0,1-1.3,1.92l-5.53,3.19c-.72.42-1.3.23-1.3-.42A2.58,2.58,0,0,1,90.42,280.18Z" transform="translate(-32.44 -65.48)"/></g></g></g><g id="_Group_14" data-name="&lt;Group&gt;"><g id="_Group_15" data-name="&lt;Group&gt;"><g id="_Group_16" data-name="&lt;Group&gt;"><polygon class="cls-2" points="41.18 183.36 12.74 166.94 12.74 105.96 41.18 122.38 41.18 183.36"/></g><g id="_Group_17" data-name="&lt;Group&gt;"><polygon class="cls-3" points="41.18 122.38 81.8 98.93 81.8 159.9 41.18 183.36 41.18 122.38"/></g><g id="_Group_18" data-name="&lt;Group&gt;"><polygon class="cls-1" points="81.8 98.93 41.18 122.38 12.74 105.96 53.37 82.51 81.8 98.93"/></g><g id="_Group_19" data-name="&lt;Group&gt;"><g id="_Group_20" data-name="&lt;Group&gt;"><polygon class="cls-2" points="45.24 124.72 77.74 105.96 78.48 106.39 78.48 128.98 45.99 147.74 45.24 147.31 45.24 124.72"/></g><g id="_Group_21" data-name="&lt;Group&gt;"><path class="cls-2" d="M91.17,187.1l5.52-3.19c.72-.41,1.3-.22,1.3.43a2.6,2.6,0,0,1-1.3,1.92l-5.52,3.19c-.72.41-1.3.23-1.3-.42A2.61,2.61,0,0,1,91.17,187.1Z" transform="translate(-32.44 -65.48)"/></g></g><g id="_Group_22" data-name="&lt;Group&gt;"><g id="_Group_23" data-name="&lt;Group&gt;"><polygon class="cls-2" points="44.49 153.3 76.99 134.54 76.99 157.13 77.74 157.56 45.24 176.32 44.49 175.89 44.49 153.3"/></g><g id="_Group_24" data-name="&lt;Group&gt;"><polygon class="cls-1" points="45.24 153.74 77.74 134.97 77.74 157.56 45.24 176.32 45.24 153.74"/></g><g id="_Group_25" data-name="&lt;Group&gt;"><path class="cls-2" d="M90.42,215.68,96,212.49c.71-.41,1.3-.22,1.3.43a2.64,2.64,0,0,1-1.3,1.92L90.42,218c-.72.41-1.3.22-1.3-.42A2.61,2.61,0,0,1,90.42,215.68Z" transform="translate(-32.44 -65.48)"/></g></g></g><g id="_Group_26" data-name="&lt;Group&gt;"><g id="_Group_27" data-name="&lt;Group&gt;"><polygon class="cls-2" points="45.24 124.72 77.74 105.96 77.74 128.55 45.24 147.31 45.24 124.72"/></g><g id="_Group_28" data-name="&lt;Group&gt;"><polygon class="cls-2" points="93.99 117.12 76.2 106.85 76.2 126.75 93.98 137.02 93.99 117.12"/></g><g id="_Group_29" data-name="&lt;Group&gt;"><g id="_Group_30" data-name="&lt;Group&gt;"><polygon class="cls-3" points="57.43 150.52 57.43 122.38 64.4 118.34 65.55 120.03 85.86 108.31 85.86 134.1 57.43 150.52"/></g><g id="_Group_31" data-name="&lt;Group&gt;"><polygon class="cls-1" points="57.43 150.52 59.46 125.9 87.89 109.48 85.86 134.1 57.43 150.52"/></g></g><g id="_Group_32" data-name="&lt;Group&gt;"><polygon class="cls-3" points="61.49 135.88 45.99 126.93 45.99 146.83 61.49 155.78 61.49 135.88"/></g><g id="_Group_33" data-name="&lt;Group&gt;"><polygon class="cls-1" points="61.49 134.1 93.99 115.34 93.98 137.93 61.49 156.69 61.49 134.1"/></g><g id="_Group_34" data-name="&lt;Group&gt;"><path class="cls-2" d="M106.67,196.05l5.52-3.19c.72-.41,1.3-.22,1.3.43a2.61,2.61,0,0,1-1.3,1.92l-5.52,3.19c-.72.41-1.3.22-1.3-.42A2.61,2.61,0,0,1,106.67,196.05Z" transform="translate(-32.44 -65.48)"/></g><g id="_Group_35" data-name="&lt;Group&gt;"><polygon class="cls-2" points="61.49 134.1 60.41 133.48 60.41 156.06 61.49 156.69 61.49 134.1"/></g><g id="_Group_36" data-name="&lt;Group&gt;"><polygon class="cls-3" points="60.41 133.48 92.9 114.72 93.99 115.34 61.49 134.1 60.41 133.48"/></g></g></g><g id="_Group_37" data-name="&lt;Group&gt;"><g id="_Group_38" data-name="&lt;Group&gt;"><polygon class="cls-2" points="377.06 210.9 348.62 194.49 348.62 133.51 377.06 149.93 377.06 210.9"/></g><g id="_Group_39" data-name="&lt;Group&gt;"><polygon class="cls-3" points="377.06 149.93 417.68 126.47 417.68 187.45 377.06 210.9 377.06 149.93"/></g><g id="_Group_40" data-name="&lt;Group&gt;"><polygon class="cls-1" points="417.68 126.47 377.06 149.93 348.62 133.51 389.24 110.06 417.68 126.47"/></g><g id="_Group_41" data-name="&lt;Group&gt;"><g id="_Group_42" data-name="&lt;Group&gt;"><polygon class="cls-2" points="381.12 152.27 413.62 133.51 414.36 133.94 414.36 156.53 381.87 175.29 381.12 174.86 381.12 152.27"/></g><g id="_Group_43" data-name="&lt;Group&gt;"><polygon class="cls-1" points="381.87 152.7 414.36 133.94 414.36 156.53 381.87 175.29 381.87 152.7"/></g><g id="_Group_44" data-name="&lt;Group&gt;"><path class="cls-2" d="M427.05,214.65l5.52-3.19c.72-.41,1.3-.22,1.3.42a2.61,2.61,0,0,1-1.3,1.93L427.05,217c-.72.41-1.3.22-1.3-.42A2.61,2.61,0,0,1,427.05,214.65Z" transform="translate(-32.44 -65.48)"/></g></g><g id="_Group_45" data-name="&lt;Group&gt;"><g id="_Group_46" data-name="&lt;Group&gt;"><polygon class="cls-2" points="380.37 180.85 412.87 162.09 412.87 184.67 413.62 185.11 381.12 203.87 380.37 203.44 380.37 180.85"/></g><g id="_Group_47" data-name="&lt;Group&gt;"><polygon class="cls-1" points="381.12 181.28 413.62 162.52 413.62 185.11 381.12 203.87 381.12 181.28"/></g><g id="_Group_48" data-name="&lt;Group&gt;"><path class="cls-2" d="M426.3,243.23l5.53-3.19c.71-.41,1.29-.22,1.29.42a2.63,2.63,0,0,1-1.29,1.93l-5.53,3.19c-.72.41-1.3.22-1.3-.43A2.61,2.61,0,0,1,426.3,243.23Z" transform="translate(-32.44 -65.48)"/></g></g></g></g><g id="Plants"><g id="_Group_49" data-name="&lt;Group&gt;"><g id="_Group_50" data-name="&lt;Group&gt;"><path class="cls-4" d="M139,340.11s.11-15.86-9.89-27.75c-8.85-10.53-13.56-17.21-10.77-20.29s8.79-3.82,16.88,4.7,8.72,32.12,7.6,37.46Z" transform="translate(-32.44 -65.48)"/><path class="cls-5" d="M139,340.11s.11-15.86-9.89-27.75c-8.85-10.53-13.56-17.21-10.77-20.29s8.79-3.82,16.88,4.7,8.72,32.12,7.6,37.46Z" transform="translate(-32.44 -65.48)"/><path class="cls-6" d="M140.68,323.06a.5.5,0,0,1-.49-.39c-3.5-16.37-12.48-25.42-17.53-29.36a.5.5,0,0,1-.09-.7.51.51,0,0,1,.71-.09c5.15,4,14.32,13.26,17.89,29.94a.49.49,0,0,1-.38.59Z" transform="translate(-32.44 -65.48)"/></g><g id="_Group_51" data-name="&lt;Group&gt;"><path class="cls-4" d="M138.62,346l-4.07,2.35a7.36,7.36,0,0,0-5.48-4.69c-4.45-1-9.07-.83-12.19-4.69s.68-8.06,0-10.9-1.12-3.66-6.7-6.5-7.78-7.55-3.58-10.74,11-.85,15.12,2c3.66,2.5,7.14,3.16,11.23,3.67s10.75,2.78,9.73,12.28A74.86,74.86,0,0,1,138.62,346Z" transform="translate(-32.44 -65.48)"/><path class="cls-6" d="M123,333.52a.51.51,0,0,1-.48-.35.51.51,0,0,1,.33-.63c.36-.11,9-2.85,12.67.09a.5.5,0,0,1-.62.78c-3.24-2.6-11.66.06-11.75.09Z" transform="translate(-32.44 -65.48)"/><path class="cls-6" d="M139.07,345.24a.49.49,0,0,1-.49-.44c-2.23-21.06-27.6-31.05-27.85-31.15a.5.5,0,0,1-.29-.65.51.51,0,0,1,.64-.29c.27.11,26.2,10.31,28.49,32a.5.5,0,0,1-.44.55Z" transform="translate(-32.44 -65.48)"/></g></g><g id="_Group_52" data-name="&lt;Group&gt;"><g id="_Group_53" data-name="&lt;Group&gt;"><path class="cls-4" d="M387.8,332.17c.11-.35,4.4-22.43,0-38.09-4-14.36-9.22-19.66-16.66-20.83s-10.67,4.19-6.72,11.45,13.46,16.89,15.79,33.11c1,6.68,1.76,12.48,1.76,12.48Z" transform="translate(-32.44 -65.48)"/><path class="cls-5" d="M387.8,332.17c.11-.35,4.4-22.43,0-38.09-4-14.36-9.22-19.66-16.66-20.83s-10.67,4.19-6.72,11.45,13.46,16.89,15.79,33.11c1,6.68,1.76,12.48,1.76,12.48Z" transform="translate(-32.44 -65.48)"/><path class="cls-6" d="M385.29,319.49h0a.5.5,0,0,1-.47-.53c1-17.88-4.84-33.84-15.31-41.67a.5.5,0,0,1-.1-.7.51.51,0,0,1,.7-.1c10.73,8,16.75,24.32,15.7,42.53A.5.5,0,0,1,385.29,319.49Z" transform="translate(-32.44 -65.48)"/></g><g id="_Group_54" data-name="&lt;Group&gt;"><path class="cls-4" d="M399.31,343.67c-.57-4.11,1.79-10.27,7.4-11.73s8.11-4.68,6.09-8.2-1.55-6.75,3.54-8.21,9.55-4,6.62-9.38c-2.13-3.89-2.6-6.41,2.62-14.07,4.33-6.36.79-10.09-4.63-9.39s-8.77,7.16-12.16,8.24-4.17-4.68-8.64-2.1-4.2,9.19-4.34,13.8-.44,5.65-4.48,5.09-8,.1-7.91,9.87c.07,8.38,4.54,18.76,4.54,18.76Z" transform="translate(-32.44 -65.48)"/><path class="cls-6" d="M392.22,337.42h-.05a.51.51,0,0,1-.45-.56c2.82-25.19,24.44-46.44,30.08-50.75a.5.5,0,0,1,.61.8c-5.57,4.25-26.91,25.22-29.69,50.06A.51.51,0,0,1,392.22,337.42Z" transform="translate(-32.44 -65.48)"/><path class="cls-6" d="M402.08,310.49a.51.51,0,0,1-.47-.32.52.52,0,0,1,.3-.65c8.06-3,17.2-1.58,17.59-1.52a.5.5,0,0,1,.41.57.52.52,0,0,1-.57.42c-.09,0-9.27-1.44-17.08,1.47A.57.57,0,0,1,402.08,310.49Z" transform="translate(-32.44 -65.48)"/><path class="cls-6" d="M394.9,325.63a.5.5,0,0,1-.37-.17,29.48,29.48,0,0,1-6.59-13.67.5.5,0,0,1,.42-.57.5.5,0,0,1,.57.42,28.9,28.9,0,0,0,6.35,13.15.51.51,0,0,1-.38.84Z" transform="translate(-32.44 -65.48)"/></g></g></g><g id="Folder_2" data-name="Folder 2"><g id="_Group_55" data-name="&lt;Group&gt;"><g id="_Group_56" data-name="&lt;Group&gt;"><polygon class="cls-4" points="106.17 125.75 106.17 280.54 264.59 189.08 264.59 48.36 146.79 116.38 142.73 104.65 106.17 125.75"/><polygon class="cls-7" points="106.17 125.75 106.17 280.54 264.59 189.08 264.59 48.36 146.79 116.38 142.73 104.65 106.17 125.75"/></g><g id="_Group_57" data-name="&lt;Group&gt;"><polygon class="cls-2" points="106.17 280.54 114.3 139.83 272.72 48.36 264.59 189.08 106.17 280.54"/></g><g id="_Group_58" data-name="&lt;Group&gt;"><polygon class="cls-4" points="106.17 280.54 118.36 142.17 276.78 50.71 264.59 189.08 106.17 280.54"/><polygon class="cls-7" points="106.17 280.54 118.36 142.17 276.78 50.71 264.59 189.08 106.17 280.54"/></g></g></g><g id="Folder_1" data-name="Folder 1"><g id="_Group_59" data-name="&lt;Group&gt;"><g id="_Group_60" data-name="&lt;Group&gt;"><polygon class="cls-4" points="130.55 139.83 130.55 294.61 288.97 203.15 288.97 62.44 171.17 130.45 167.1 118.72 130.55 139.83"/><polygon class="cls-8" points="130.55 139.83 130.55 294.61 288.97 203.15 288.97 62.44 171.17 130.45 167.1 118.72 130.55 139.83"/></g><g id="_Group_61" data-name="&lt;Group&gt;"><polygon class="cls-2" points="130.55 294.61 138.67 153.9 297.09 62.43 288.97 203.15 130.55 294.61"/></g><g id="_Group_62" data-name="&lt;Group&gt;"><polygon class="cls-4" points="130.55 294.61 142.73 156.24 301.15 64.78 288.97 203.15 130.55 294.61"/><polygon class="cls-8" points="130.55 294.61 142.73 156.24 301.15 64.78 288.97 203.15 130.55 294.61"/></g></g></g><g id="Documents"><g id="_Group_63" data-name="&lt;Group&gt;"><path class="cls-2" d="M297,409.34c-28.44-16.42-54.82-34.27-66.86-55.21L266.74,333Z" transform="translate(-32.44 -65.48)"/></g><g id="_Group_64" data-name="&lt;Group&gt;"><g id="_Group_65" data-name="&lt;Group&gt;"><polygon class="cls-4" points="158.98 156.24 158.98 311.03 317.4 219.56 317.4 78.85 199.6 146.86 195.54 135.14 158.98 156.24"/><polygon class="cls-5" points="158.98 156.24 158.98 311.03 317.4 219.56 317.4 78.85 199.6 146.86 195.54 135.14 158.98 156.24"/></g><g id="_Group_66" data-name="&lt;Group&gt;"><g id="_Group_67" data-name="&lt;Group&gt;"><path class="cls-6" d="M237.06,267.48c-.4,0-.46-.46-.46-.73v-132a3.32,3.32,0,0,1,1.48-2.56l114.34-66a1.06,1.06,0,0,1,.52-.16c.4,0,.46.46.46.73v132a3.33,3.33,0,0,1-1.48,2.57l-114.34,66A1.09,1.09,0,0,1,237.06,267.48Z" transform="translate(-32.44 -65.48)"/><path class="cls-4" d="M352.88,66.49a1,1,0,0,1,0,.22v132a2.87,2.87,0,0,1-1.23,2.14l-114.34,66-.2.09a.61.61,0,0,1,0-.22v-132a2.87,2.87,0,0,1,1.23-2.13l114.34-66a.56.56,0,0,1,.21-.09m.06-1a1.56,1.56,0,0,0-.77.23l-114.34,66a3.85,3.85,0,0,0-1.73,3v132c0,.78.39,1.23,1,1.23a1.54,1.54,0,0,0,.77-.23l114.34-66a3.81,3.81,0,0,0,1.73-3v-132c0-.78-.39-1.24-1-1.23Z" transform="translate(-32.44 -65.48)"/><path class="cls-9" d="M352.88,66.49a1,1,0,0,1,0,.22v132a2.87,2.87,0,0,1-1.23,2.14l-114.34,66-.2.09a.61.61,0,0,1,0-.22v-132a2.87,2.87,0,0,1,1.23-2.13l114.34-66a.56.56,0,0,1,.21-.09m.06-1a1.56,1.56,0,0,0-.77.23l-114.34,66a3.85,3.85,0,0,0-1.73,3v132c0,.78.39,1.23,1,1.23a1.54,1.54,0,0,0,.77-.23l114.34-66a3.81,3.81,0,0,0,1.73-3v-132c0-.78-.39-1.24-1-1.23Z" transform="translate(-32.44 -65.48)"/></g><g id="_Group_68" data-name="&lt;Group&gt;"><g id="_Group_69" data-name="&lt;Group&gt;"><polygon class="cls-4" points="215.85 74.28 256.47 50.83 256.47 97.73 215.85 121.19 215.85 74.28"/><polygon class="cls-10" points="215.85 74.28 256.47 50.83 256.47 97.73 215.85 121.19 215.85 74.28"/></g><g id="_Group_70" data-name="&lt;Group&gt;"><g id="_Group_71" data-name="&lt;Group&gt;"><path class="cls-6" d="M282.82,128V142.1l-1.28.71V138.5c0-2.38-1.93-3.19-4.33-1.81L260,146.64c-2.39,1.38-4.33,4.43-4.33,6.81v4.31l-1.27.76V144.45Z" transform="translate(-32.44 -65.48)"/></g><g id="_Group_72" data-name="&lt;Group&gt;"><path class="cls-6" d="M275,163.9c-2.08,1.2-3.77-.06-3.77-2.83V138.5L266,141.34v22.75c0,2.76-1.69,6-3.77,7.17l-3.78,2.18v1.5l20.31-11.73v-1.49Z" transform="translate(-32.44 -65.48)"/></g></g></g><g id="_Group_73" data-name="&lt;Group&gt;"><g id="_Group_74" data-name="&lt;Group&gt;"><path class="cls-11" d="M297,114c0,1.3,1.17,1.67,2.6.85L339.12,92a5.22,5.22,0,0,0,2.6-3.85c0-1.29-1.17-1.67-2.6-.84l-39.49,22.8A5.2,5.2,0,0,0,297,114Z" transform="translate(-32.44 -65.48)"/></g><g id="_Group_75" data-name="&lt;Group&gt;"><path class="cls-11" d="M297,128c0,1.3,1.17,1.68,2.6.85l39.49-22.8a5.22,5.22,0,0,0,2.6-3.85c0-1.29-1.17-1.67-2.6-.84l-39.49,22.8A5.22,5.22,0,0,0,297,128Z" transform="translate(-32.44 -65.48)"/></g><g id="_Group_76" data-name="&lt;Group&gt;"><path class="cls-11" d="M297,142.1c0,1.3,1.17,1.68,2.6.85l39.49-22.8a5.22,5.22,0,0,0,2.6-3.84c0-1.3-1.17-1.68-2.6-.85l-39.49,22.8A5.22,5.22,0,0,0,297,142.1Z" transform="translate(-32.44 -65.48)"/></g><g id="_Group_77" data-name="&lt;Group&gt;"><path class="cls-11" d="M297,156.17c0,1.3,1.17,1.68,2.6.85l39.49-22.8a5.22,5.22,0,0,0,2.6-3.84c0-1.3-1.17-1.68-2.6-.85l-39.49,22.8A5.22,5.22,0,0,0,297,156.17Z" transform="translate(-32.44 -65.48)"/></g></g><g id="_Group_78" data-name="&lt;Group&gt;"><g id="_Group_79" data-name="&lt;Group&gt;"><path class="cls-11" d="M248.29,198.39c0,1.3,1.16,1.68,2.6.85l88.23-51a5.2,5.2,0,0,0,2.6-3.84c0-1.3-1.17-1.67-2.6-.85l-88.23,51A5.19,5.19,0,0,0,248.29,198.39Z" transform="translate(-32.44 -65.48)"/></g><g id="_Group_80" data-name="&lt;Group&gt;"><path class="cls-11" d="M248.29,212.46c0,1.3,1.16,1.68,2.6.85l88.23-50.94a5.22,5.22,0,0,0,2.6-3.85c0-1.29-1.17-1.67-2.6-.84l-88.23,50.94A5.19,5.19,0,0,0,248.29,212.46Z" transform="translate(-32.44 -65.48)"/></g><g id="_Group_81" data-name="&lt;Group&gt;"><path class="cls-11" d="M248.29,226.54c0,1.29,1.16,1.67,2.6.84l88.23-50.94a5.22,5.22,0,0,0,2.6-3.85c0-1.29-1.17-1.67-2.6-.84l-88.23,50.94A5.19,5.19,0,0,0,248.29,226.54Z" transform="translate(-32.44 -65.48)"/></g></g></g><g id="_Group_82" data-name="&lt;Group&gt;"><g id="_Group_83" data-name="&lt;Group&gt;"><polygon class="cls-4" points="158.98 311.03 187.41 186.73 345.83 95.27 317.4 219.56 158.98 311.03"/></g><g id="_Group_84" data-name="&lt;Group&gt;"><polygon class="cls-4" points="197.74 196.47 197.74 288.65 234.29 267.54 234.29 175.36 197.74 196.47"/><polygon class="cls-5" points="197.74 196.47 197.74 288.65 234.29 267.54 234.29 175.36 197.74 196.47"/></g></g></g><g id="_Group_85" data-name="&lt;Group&gt;"><g id="_Group_86" data-name="&lt;Group&gt;"><path class="cls-6" d="M297.07,408.74c-3.11-2.32-33.09-25.23-48.33-58-16.22-34.84-16.2-75.48-16.2-90.77v-.48l108.68-62.74c0,15.43,0,56.13,16.29,91.09,14.89,32,43.72,54.62,48.29,58.08Z" transform="translate(-32.44 -65.48)"/><path class="cls-4" d="M340.72,197.65c0,16.08.31,56,16.34,90.44,14.39,30.9,41.75,53.12,47.84,57.81L297.1,408.14c-4.21-3.17-33.06-25.7-47.9-57.57C233,315.83,233,275.27,233,260v-.19l107.68-62.17m1-1.73L232,259.24c0,14.39-.3,56.2,16.25,91.75C264.54,385.88,297,409.34,297,409.34L406.71,346s-32.5-23.46-48.74-58.35c-16.56-35.55-16.25-77.36-16.25-91.75Z" transform="translate(-32.44 -65.48)"/><path class="cls-9" d="M340.72,197.65c0,16.08.31,56,16.34,90.44,14.39,30.9,41.75,53.12,47.84,57.81L297.1,408.14c-4.21-3.17-33.06-25.7-47.9-57.57C233,315.83,233,275.27,233,260v-.19l107.68-62.17m1-1.73L232,259.24c0,14.39-.3,56.2,16.25,91.75C264.54,385.88,297,409.34,297,409.34L406.71,346s-32.5-23.46-48.74-58.35c-16.56-35.55-16.25-77.36-16.25-91.75Z" transform="translate(-32.44 -65.48)"/></g><g id="_Group_87" data-name="&lt;Group&gt;"><g id="_Group_88" data-name="&lt;Group&gt;"><path class="cls-11" d="M329.31,217.15l-34.68,20a4.92,4.92,0,0,0-2.52,3.79c.05,1.27,1.26,1.63,2.69.8l34.69-20A4.92,4.92,0,0,0,332,218C331.94,216.68,330.75,216.32,329.31,217.15Z" transform="translate(-32.44 -65.48)"/></g><g id="_Group_89" data-name="&lt;Group&gt;"><path class="cls-11" d="M330.05,230.8l-34.68,20a4.62,4.62,0,0,0-2.42,3.74c.11,1.23,1.37,1.56,2.8.73l34.69-20a4.56,4.56,0,0,0,2.39-3.73C332.73,230.3,331.49,230,330.05,230.8Z" transform="translate(-32.44 -65.48)"/></g><g id="_Group_90" data-name="&lt;Group&gt;"><path class="cls-11" d="M331.44,244.07l-34.69,20c-1.43.83-2.47,2.48-2.3,3.67s1.48,1.5,2.92.67l34.69-20c1.43-.83,2.45-2.47,2.27-3.66S332.87,243.24,331.44,244.07Z" transform="translate(-32.44 -65.48)"/></g><g id="_Group_91" data-name="&lt;Group&gt;"><path class="cls-11" d="M333.52,256.94l-34.69,20c-1.43.83-2.42,2.45-2.18,3.61s1.6,1.42,3,.59l34.68-20c1.44-.83,2.4-2.44,2.16-3.6S335,256.11,333.52,256.94Z" transform="translate(-32.44 -65.48)"/></g><g id="_Group_92" data-name="&lt;Group&gt;"><path class="cls-11" d="M336.34,269.38l-34.69,20c-1.43.83-2.36,2.41-2,3.52s1.73,1.36,3.16.53l34.69-20c1.44-.83,2.34-2.4,2-3.52S337.77,268.55,336.34,269.38Z" transform="translate(-32.44 -65.48)"/></g><g id="_Group_93" data-name="&lt;Group&gt;"><path class="cls-11" d="M340,281.37l-84.54,48.81c-1.43.83-2.3,2.37-1.91,3.44s1.88,1.27,3.31.44l84.54-48.81c1.44-.83,2.27-2.36,1.88-3.44S341.38,280.54,340,281.37Z" transform="translate(-32.44 -65.48)"/></g><g id="_Group_94" data-name="&lt;Group&gt;"><path class="cls-11" d="M344.45,292.82l-84.53,48.81c-1.44.83-2.23,2.33-1.75,3.35s2,1.18,3.46.35l84.54-48.81c1.44-.83,2.21-2.33,1.73-3.35S345.89,292,344.45,292.82Z" transform="translate(-32.44 -65.48)"/></g><g id="_Group_95" data-name="&lt;Group&gt;"><path class="cls-11" d="M350,303.73l-84.54,48.81c-1.44.83-2.15,2.29-1.58,3.26s2.2,1.07,3.64.24L352,307.23c1.43-.82,2.12-2.27,1.55-3.24S351.4,302.9,350,303.73Z" transform="translate(-32.44 -65.48)"/></g><g id="_Group_96" data-name="&lt;Group&gt;"><path class="cls-11" d="M356.47,314.05l-84.53,48.8c-1.44.83-2.08,2.26-1.43,3.17s2.36,1,3.8.16l84.53-48.81c1.44-.83,2.06-2.24,1.41-3.16S357.91,313.22,356.47,314.05Z" transform="translate(-32.44 -65.48)"/></g><g id="_Group_97" data-name="&lt;Group&gt;"><path class="cls-11" d="M363.85,323.86l-84.54,48.8c-1.43.83-2,2.22-1.28,3.09s2.49.91,3.93.08L366.5,327c1.43-.83,2-2.2,1.26-3.07S365.29,323,363.85,323.86Z" transform="translate(-32.44 -65.48)"/></g><g id="_Group_98" data-name="&lt;Group&gt;"><path class="cls-11" d="M372,333.2,287.49,382c-1.44.83-2,2.19-1.16,3s2.62.83,4.05,0l84.54-48.81c1.44-.83,1.94-2.17,1.14-3S373.46,332.38,372,333.2Z" transform="translate(-32.44 -65.48)"/></g><g id="_Group_99" data-name="&lt;Group&gt;"><path class="cls-11" d="M381,342.13l-84.54,48.8c-1.43.83-1.9,2.16-1,2.95s2.74.76,4.18-.07L384.11,345c1.43-.83,1.88-2.13,1-2.93S382.4,341.3,381,342.13Z" transform="translate(-32.44 -65.48)"/></g></g><g id="_Group_100" data-name="&lt;Group&gt;"><g id="_Group_101" data-name="&lt;Group&gt;"><path class="cls-4" d="M282.06,244.44l-39.88,23c.44,14.45,2.09,35.29,8.13,56.28l39.89-23C284.15,279.73,282.5,258.88,282.06,244.44Z" transform="translate(-32.44 -65.48)"/><path class="cls-10" d="M282.06,244.44l-39.88,23c.44,14.45,2.09,35.29,8.13,56.28l39.89-23C284.15,279.73,282.5,258.88,282.06,244.44Z" transform="translate(-32.44 -65.48)"/></g><g id="_Group_102" data-name="&lt;Group&gt;"><path class="cls-4" d="M258.44,264.26a6.59,6.59,0,0,0-1.94-5.06l-14.32,8.26c.12,3.82.32,8.09.67,12.69a9.39,9.39,0,0,0,5.41-1C253.89,276.57,258.44,269.88,258.44,264.26Z" transform="translate(-32.44 -65.48)"/><path class="cls-12" d="M258.44,264.26a6.59,6.59,0,0,0-1.94-5.06l-14.32,8.26c.12,3.82.32,8.09.67,12.69a9.39,9.39,0,0,0,5.41-1C253.89,276.57,258.44,269.88,258.44,264.26Z" transform="translate(-32.44 -65.48)"/></g><g id="_Group_103" data-name="&lt;Group&gt;"><path class="cls-4" d="M286.81,286.92h0c-2.66-3.35-8.07-13.7-10.38-18.21a1,1,0,0,0-1.85.17,109.75,109.75,0,0,0-4.32,26.25,38,38,0,0,1-8.47-9.42.89.89,0,0,0-1.59.28c-4.36,16.79-2.17,33.31-2.17,33.31h0l32.17-18.58C288.86,296.08,287.75,291.46,286.81,286.92Z" transform="translate(-32.44 -65.48)"/><path class="cls-12" d="M286.81,286.92h0c-2.66-3.35-8.07-13.7-10.38-18.21a1,1,0,0,0-1.85.17,109.75,109.75,0,0,0-4.32,26.25,38,38,0,0,1-8.47-9.42.89.89,0,0,0-1.59.28c-4.36,16.79-2.17,33.31-2.17,33.31h0l32.17-18.58C288.86,296.08,287.75,291.46,286.81,286.92Z" transform="translate(-32.44 -65.48)"/></g></g></g></g></svg>